<svg width="77" height="27" viewBox="0 0 77 27" fill="none" xmlns="http://www.w3.org/2000/svg">
<path d="M13.256 26.36C11.504 26.36 9.86 26.036 8.324 25.388C6.812 24.716 5.48 23.792 4.328 22.616C3.2 21.44 2.312 20.072 1.664 18.512C1.016 16.952 0.692 15.272 0.692 13.472C0.692 11.672 1.016 10.004 1.664 8.468C2.312 6.908 3.212 5.54 4.364 4.364C5.516 3.188 6.86 2.276 8.396 1.628C9.956 0.979998 11.648 0.655998 13.472 0.655998C15.464 0.655998 17.3 1.04 18.98 1.808C20.66 2.576 22.064 3.68 23.192 5.12L20.852 7.46C20.06 6.308 19.016 5.432 17.72 4.832C16.424 4.208 15.008 3.896 13.472 3.896C11.648 3.896 10.028 4.304 8.612 5.12C7.22 5.936 6.128 7.064 5.336 8.504C4.568 9.944 4.184 11.6 4.184 13.472C4.184 15.368 4.58 17.036 5.372 18.476C6.164 19.916 7.232 21.044 8.576 21.86C9.92 22.676 11.456 23.084 13.184 23.084C14.936 23.084 16.448 22.748 17.72 22.076C19.016 21.404 20.012 20.42 20.708 19.124C21.404 17.804 21.752 16.196 21.752 14.3L23.804 15.776H13.004V12.68H25.244V13.184C25.244 16.088 24.728 18.524 23.696 20.492C22.688 22.436 21.272 23.9 19.448 24.884C17.648 25.868 15.584 26.36 13.256 26.36ZM36.8186 15.848L26.9906 1.016H30.9146L38.8346 13.148H37.0706L45.0266 1.016H48.8786L38.9786 15.848H36.8186ZM36.2426 26V13.616H39.6266V26H36.2426ZM52.6811 26V1.016H55.0571L65.6411 18.404H64.0211L74.6051 1.016H76.9811V26H73.5971V6.956L74.3891 7.172L66.0371 20.888H63.6611L55.3091 7.172L56.0651 6.956V26H52.6811Z" fill="white" fill-opacity="0.8"/>
</svg>
