<svg width="107" height="25" viewBox="0 0 107 25" fill="none" xmlns="http://www.w3.org/2000/svg">
<path d="M9.12 24.352C7.22133 24.352 5.568 24.064 4.16 23.488C2.77333 22.912 1.504 22.0053 0.352 20.768L3.968 17.12C4.75733 17.952 5.6 18.592 6.496 19.04C7.392 19.4667 8.40533 19.68 9.536 19.68C10.496 19.68 11.232 19.52 11.744 19.2C12.2773 18.8587 12.544 18.4 12.544 17.824C12.544 17.2907 12.352 16.8533 11.968 16.512C11.584 16.1493 11.072 15.84 10.432 15.584C9.81333 15.3067 9.12 15.0507 8.352 14.816C7.60533 14.56 6.848 14.2613 6.08 13.92C5.33333 13.5573 4.64 13.12 4 12.608C3.38133 12.096 2.88 11.456 2.496 10.688C2.112 9.92 1.92 8.97067 1.92 7.84C1.92 6.38933 2.26133 5.152 2.944 4.128C3.648 3.104 4.61867 2.31467 5.856 1.76C7.09333 1.20533 8.53333 0.927999 10.176 0.927999C11.8187 0.927999 13.3333 1.20533 14.72 1.76C16.1067 2.31467 17.248 3.08267 18.144 4.064L14.496 7.68C13.8133 6.99733 13.12 6.48533 12.416 6.144C11.712 5.80267 10.944 5.632 10.112 5.632C9.32267 5.632 8.704 5.77067 8.256 6.048C7.808 6.32533 7.584 6.72 7.584 7.232C7.584 7.744 7.776 8.16 8.16 8.48C8.544 8.8 9.04533 9.088 9.664 9.344C10.304 9.57867 10.9973 9.824 11.744 10.08C12.512 10.336 13.2693 10.6347 14.016 10.976C14.7627 11.3173 15.4453 11.7547 16.064 12.288C16.704 12.8213 17.216 13.4933 17.6 14.304C17.984 15.1147 18.176 16.096 18.176 17.248C18.176 19.5093 17.376 21.2587 15.776 22.496C14.1973 23.7333 11.9787 24.352 9.12 24.352ZM25.6225 15.872V11.616H30.1025C30.6572 11.616 31.1585 11.5093 31.6065 11.296C32.0758 11.0613 32.4492 10.72 32.7265 10.272C33.0038 9.824 33.1425 9.26933 33.1425 8.608C33.1425 7.94667 33.0038 7.392 32.7265 6.944C32.4492 6.47467 32.0758 6.13333 31.6065 5.92C31.1585 5.68533 30.6572 5.568 30.1025 5.568H25.6225V1.312H31.0945C32.5452 1.312 33.8572 1.61067 35.0305 2.208C36.2038 2.784 37.1318 3.616 37.8145 4.704C38.4972 5.77067 38.8385 7.072 38.8385 8.608C38.8385 10.1013 38.4972 11.4027 37.8145 12.512C37.1318 13.6 36.2038 14.432 35.0305 15.008C33.8572 15.584 32.5452 15.872 31.0945 15.872H25.6225ZM21.0785 24V1.312H26.8065V24H21.0785ZM47.835 15.872L39.163 1.312H45.723L52.347 13.12H47.739L54.363 1.312H60.795L52.059 15.872H47.835ZM47.163 24V13.536H52.891V24H47.163ZM66.8725 14.816V10.72H71.1925C72.1312 10.72 72.8458 10.496 73.3365 10.048C73.8485 9.57867 74.1045 8.94933 74.1045 8.16C74.1045 7.392 73.8485 6.77333 73.3365 6.304C72.8458 5.81333 72.1312 5.568 71.1925 5.568H66.8725V1.312H71.9925C73.5285 1.312 74.8725 1.6 76.0245 2.176C77.1978 2.752 78.1152 3.54133 78.7765 4.544C79.4378 5.54667 79.7685 6.72 79.7685 8.064C79.7685 9.408 79.4272 10.592 78.7445 11.616C78.0832 12.6187 77.1552 13.408 75.9605 13.984C74.7658 14.5387 73.3685 14.816 71.7685 14.816H66.8725ZM62.3285 24V1.312H68.0565V24H62.3285ZM74.6165 24L68.0245 14.272L73.1765 13.024L81.2405 24H74.6165ZM94.1185 24.416C92.3692 24.416 90.7585 24.1173 89.2865 23.52C87.8145 22.9227 86.5238 22.0907 85.4145 21.024C84.3265 19.9573 83.4732 18.7093 82.8545 17.28C82.2358 15.8293 81.9265 14.272 81.9265 12.608C81.9265 10.944 82.2252 9.408 82.8225 8C83.4412 6.57067 84.2945 5.32267 85.3825 4.256C86.4705 3.18933 87.7505 2.368 89.2225 1.792C90.6945 1.19467 92.3052 0.895998 94.0545 0.895998C95.8038 0.895998 97.4145 1.19467 98.8865 1.792C100.359 2.368 101.639 3.18933 102.727 4.256C103.815 5.32267 104.657 6.57067 105.255 8C105.873 9.42933 106.183 10.976 106.183 12.64C106.183 14.304 105.873 15.8507 105.255 17.28C104.657 18.7093 103.815 19.968 102.727 21.056C101.639 22.1227 100.359 22.9547 98.8865 23.552C97.4358 24.128 95.8465 24.416 94.1185 24.416ZM94.0545 19.296C95.3345 19.296 96.4438 19.0187 97.3825 18.464C98.3212 17.9093 99.0465 17.1307 99.5585 16.128C100.071 15.1253 100.327 13.952 100.327 12.608C100.327 11.6267 100.177 10.7307 99.8785 9.92C99.6012 9.10933 99.1852 8.416 98.6305 7.84C98.0758 7.24267 97.4145 6.784 96.6465 6.464C95.8785 6.144 95.0145 5.984 94.0545 5.984C92.7745 5.984 91.6652 6.26133 90.7265 6.816C89.7878 7.34933 89.0625 8.11733 88.5505 9.12C88.0385 10.1227 87.7825 11.2853 87.7825 12.608C87.7825 13.632 87.9212 14.56 88.1985 15.392C88.4972 16.2027 88.9238 16.9067 89.4785 17.504C90.0332 18.08 90.6945 18.528 91.4625 18.848C92.2305 19.1467 93.0945 19.296 94.0545 19.296Z" fill="url(#paint0_linear_5_21)"/>
<defs>
<linearGradient id="paint0_linear_5_21" x1="-6.83132" y1="-8" x2="112.229" y2="-8" gradientUnits="userSpaceOnUse">
<stop stop-color="#FF4300"/>
<stop offset="1" stop-color="#FF6400"/>
</linearGradient>
</defs>
</svg>
